#!OML:ASF E:\acrobat2\Project_11_07_03\Capture day 1\Session 1\Acrobat.ASF
:FULLY-SPECIFIED
:DEGREES
697
root 9.06604 6.2022 2.05377 96.1103 -5.37559 -80.0219
lowerback 12.3218 -3.81574 2.0249
upperback 4.13624 -4.84748 3.9276
thorax -2.36639 -2.51382 3.64363
lowerneck -3.20885 1.79717 -2.06101
upperneck 3.57224 1.59147 16.3291
head 1.42979 0.946501 5.29561
rclavicle 6.24184e-014 -8.5875e-014
rhumerus -31.0779 7.06201 -86.7364
rradius 95.4004
rwrist -3.61658
rhand -13.4713 -6.84403
rfingers 7.12502
rthumb 12.6388 -36.4416
lclavicle 6.24184e-014 -8.5875e-014
lhumerus 14.7483 -6.52296 107.333
lradius 108.749
lwrist 8.8909
lhand -10.621 -15.6534
lfingers 7.12502
lthumb 15.3856 13.7541
rfemur -32.6537 -0.725708 12.6225
rtibia 71.2204
rfoot 372.867 -11.7711
rtoes 37.0943
lfemur -22.5751 1.00158 -30.1146
ltibia 9.97441
lfoot 7.452 3.42064
ltoes 3.98356
698
root 9.06766 6.19664 2.05765 96.076 -5.40644 -80.0647
lowerback 12.3208 -3.82805 2.01679
upperback 4.14876 -4.86534 3.89944
thorax -2.35383 -2.52227 3.62039
lowerneck -3.18839 1.77057 -2.02366
upperneck 3.60937 1.54955 16.2861
head 1.44188 0.926122 5.27536
rclavicle 3.70733e-014 -2.70347e-014
rhumerus -31.2765 6.9023 -86.9008
rradius 95.1109
rwrist -3.69598
rhand -13.392 -6.85197
rfingers 7.12502
rthumb 12.7153 -36.4448
lclavicle 3.70733e-014 -2.70347e-014
lhumerus 14.7385 -6.58067 107.275
lradius 108.668
lwrist 8.5316
lhand -10.8592 -15.8703
lfingers 7.12502
lthumb 15.1561 13.5547
rfemur -32.6122 -0.599703 12.4568
rtibia 71.0428
rfoot 373.012 -11.7564
rtoes 37.1864
lfemur -22.5193 1.21637 -30.183
ltibia 9.93408
lfoot 6.94663 3.67198
ltoes 1.92273
699
root 9.06975 6.19237 2.06162 96.038 -5.46738 -80.1215
lowerback 12.3365 -3.84531 1.94245
upperback 4.16717 -4.89691 3.87957
thorax -2.33736 -2.53809 3.64561
lowerneck -3.25089 1.74916 -2.00275
upperneck 3.70601 1.50562 16.2458
head 1.48542 0.911286 5.26038
rclavicle -6.40087e-014 7.15625e-014
rhumerus -31.4243 6.77367 -87.0625
rradius 94.7988
rwrist -3.73635
rhand -13.2991 -6.83267
rfingers 7.12502
rthumb 12.8048 -36.42
lclavicle -6.40087e-014 7.15625e-014
lhumerus 14.7575 -6.58714 107.212
lradius 108.592
lwrist 8.18594
lhand -11.1103 -16.0871
lfingers 7.12502
lthumb 14.9143 13.356
rfemur -32.5683 -0.492032 12.2628
rtibia 70.8809
rfoot 373.076 -11.7989
rtoes 37.3363
lfemur -22.4594 1.47345 -30.2924
ltibia 9.89654
lfoot 6.3981 3.89553
ltoes -0.495247
700
root 9.07211 6.18905 2.06517 96.0011 -5.54804 -80.1978
lowerback 12.356 -3.86439 1.81384
upperback 4.19198 -4.93744 3.87345
thorax -2.31004 -2.55913 3.71663
lowerneck -3.38663 1.73505 -2.01326
upperneck 3.85156 1.46398 16.2289
head 1.55498 0.903121 5.25942
rclavicle 2.79789e-014 -4.77083e-014
rhumerus -31.5259 6.68101 -87.2082
rradius 94.4843
rwrist -3.75233
rhand -13.1908 -6.82392
rfingers 7.12502
rthumb 12.9093 -36.4046
lclavicle 2.79789e-014 -4.77083e-014
lhumerus 14.8085 -6.5464 107.159
lradius 108.523
lwrist 7.86824
lhand -11.3509 -16.2855
lfingers 7.12502
lthumb 14.6824 13.1746
rfemur -32.5327 -0.399184 12.0524
rtibia 70.7439
rfoot 373.077 -11.892
rtoes 37.4901
lfemur -22.3996 1.74285 -30.4249
ltibia 9.85626
lfoot 5.86488 4.06371
ltoes -3.0182
701
root 9.07492 6.18598 2.06787 95.9713 -5.6293 -80.2809
lowerback 12.3671 -3.89113 1.66316
upperback 4.21846 -4.99133 3.88798
thorax -2.27165 -2.58767 3.82257
lowerneck -3.55291 1.73051 -2.06903
upperneck 4.01318 1.43422 16.2407
head 1.63263 0.902929 5.27588
rclavicle -2.20154e-014 3.97569e-014
rhumerus -31.5981 6.63303 -87.3293
rradius 94.1808
rwrist -3.75698
rhand -13.0729 -6.82217
rfingers 7.12502
rthumb 13.0229 -36.3957
lclavicle -2.20154e-014 3.97569e-014
lhumerus 14.8851 -6.45384 107.127
lradius 108.467
lwrist 7.60665
lhand -11.554 -16.4557
lfingers 7.12502
lthumb 14.4868 13.0186
rfemur -32.5159 -0.330043 11.8472
rtibia 70.633
rfoot 373.006 -12.0287
rtoes 37.6676
lfemur -22.3579 1.97983 -30.5551
ltibia 9.82669
lfoot 5.42095 4.14321
ltoes -5.16058
702
root 9.07817 6.18272 2.06952 95.95 -5.67687 -80.36
lowerback 12.3611 -3.9306 1.53661
upperback 4.24249 -5.06016 3.92791
thorax -2.22507 -2.62449 3.94238
lowerneck -3.69619 1.73306 -2.14634
upperneck 4.15747 1.41915 16.2533
head 1.69967 0.908127 5.29612
rclavicle -3.54132e-014 6.20208e-014
rhumerus -31.6584 6.62972 -87.4283
rradius 93.8916
rwrist -3.7643
rhand -12.934 -6.86117
rfingers 7.12502
rthumb 13.1568 -36.4261
lclavicle -3.54132e-014 6.20208e-014
lhumerus 14.971 -6.31003 107.109
lradius 108.432
lwrist 7.43952
lhand -11.7039 -16.5907
lfingers 7.12502
lthumb 14.3424 12.8939
rfemur -32.5175 -0.281649 11.6857
rtibia 70.543
rfoot 372.857 -12.1948
rtoes 37.8989
lfemur -22.3252 2.13926 -30.6362
ltibia 9.78253
lfoot 5.13714 4.13729
ltoes -6.70628
703
root 9.08187 6.17905 2.07009 95.9419 -5.67796 -80.4294
lowerback 12.3264 -3.97417 1.46854
upperback 4.25997 -5.12873 3.97868
thorax -2.17336 -2.66134 4.03877
lowerneck -3.76894 1.72743 -2.18495
upperneck 4.24795 1.40099 16.2356
head 1.73991 0.906047 5.29879
rclavicle 5.11125e-014 -5.56597e-014
rhumerus -31.7285 6.61293 -87.5251
rradius 93.6179
rwrist -3.76801
rhand -12.7597 -6.97199
rfingers 7.12502
rthumb 13.3249 -36.526
lclavicle 5.11125e-014 -5.56597e-014
lhumerus 15.0424 -6.16256 107.093
lradius 108.414
lwrist 7.3878
lhand -11.821 -16.6907
lfingers 7.12502
lthumb 14.2295 12.8019
rfemur -32.5399 -0.252712 11.5826
rtibia 70.4706
rfoot 372.656 -12.3705
rtoes 38.1476
lfemur -22.3212 2.22292 -30.6558
ltibia 9.74877
lfoot 5.04909 4.0446
ltoes -7.58309
704
root 9.086 6.175 2.06997 95.9526 -5.63368 -80.4902
lowerback 12.2569 -4.01278 1.47388
upperback 4.26859 -5.18339 4.02832
thorax -2.11916 -2.69084 4.08861
lowerneck -3.77654 1.70627 -2.14215
upperneck 4.29074 1.3678 16.151
head 1.7579 0.891339 5.2651
rclavicle 3.37934e-015 3.33958e-014
rhumerus -31.8235 6.53583 -87.6336
rradius 93.3569
rwrist -3.75065
rhand -12.5559 -7.09407
rfingers 7.12502
rthumb 13.5213 -36.6351
lclavicle 3.37934e-015 3.33958e-014
lhumerus 15.0883 -6.04931 107.074
lradius 108.406
lwrist 7.4526
lhand -11.9474 -16.7525
lfingers 7.12502
lthumb 14.1077 12.7486
rfemur -32.5831 -0.237405 11.5357
rtibia 70.4048
rfoot 372.416 -12.5299
rtoes 38.3849
lfemur -22.344 2.24633 -30.6183
ltibia 9.71536
lfoot 5.13809 3.90104
ltoes -7.84914
705
root 9.09052 6.17073 2.06975 95.9712 -5.55682 -80.548
lowerback 12.1714 -4.04316 1.54105
upperback 4.26866 -5.22051 4.0707
thorax -2.07234 -2.71091 4.09307
lowerneck -3.72848 1.67217 -2.04216
upperneck 4.29806 1.32064 16.0332
head 1.75814 0.865564 5.21
rclavicle -1.49089e-015 -3.97569e-014
rhumerus -31.9497 6.39753 -87.7577
rradius 93.1077
rwrist -3.70809
rhand -12.3322 -7.20489
rfingers 7.12502
rthumb 13.7368 -36.7315
lclavicle -1.49089e-015 -3.97569e-014
lhumerus 15.1059 -5.9775 107.05
lradius 108.406
lwrist 7.61925
lhand -12.1256 -16.7713
lfingers 7.12502
lthumb 13.936 12.7416
rfemur -32.6284 -0.226412 11.5281
rtibia 70.3292
rfoot 372.167 -12.6831
rtoes 38.667
lfemur -22.377 2.22459 -30.5381
ltibia 9.68532
lfoot 5.31613 3.75453
ltoes -7.37108
706
root 9.09542 6.16661 2.06967 95.9822 -5.476 -80.6102
lowerback 12.0965 -4.06187 1.6345
upperback 4.26492 -5.23867 4.09866
thorax -2.04006 -2.72078 4.06641
lowerneck -3.66132 1.63086 -1.91892
upperneck 4.29843 1.26217 15.926
head 1.75423 0.833036 5.15374
rclavicle -1.44218e-013 1.39944e-013
rhumerus -32.1004 6.21594 -87.8975
rradius 92.8705
rwrist -3.64218
rhand -12.1065 -7.32608
rfingers 7.12502
rthumb 13.9544 -36.8378
lclavicle -1.44218e-013 1.39944e-013
lhumerus 15.1038 -5.94849 107.017
lradius 108.406
lwrist 7.85343
lhand -12.4075 -16.7473
lfingers 7.12502
lthumb 13.6643 12.7842
rfemur -32.6566 -0.216036 11.5265
rtibia 70.2363
rfoot 371.931 -12.8356
rtoes 38.9868
lfemur -22.4053 2.20557 -30.4552
ltibia 9.6736
lfoot 5.5095 3.63618
ltoes -6.54631
707
root 9.10051 6.16306 2.06973 95.9732 -5.40123 -80.6891
lowerback 12.0527 -4.07001 1.72597
upperback 4.26279 -5.24201 4.11757
thorax -2.02452 -2.72295 4.03209
lowerneck -3.61819 1.59326 -1.82797
upperneck 4.32647 1.2023 15.8807
head 1.76182 0.80217 5.12279
rclavicle 1.49089e-015 5.88403e-014
rhumerus -32.2708 6.03497 -88.0484
rradius 92.6558
rwrist -3.55834
rhand -11.9016 -7.45224
rfingers 7.12502
rthumb 14.1518 -36.9502
lclavicle 1.49089e-015 5.88403e-014
lhumerus 15.0977 -5.94003 106.977
lradius 108.399
lwrist 8.13186
lhand -12.8222 -16.688
lfingers 7.12502
lthumb 13.2645 12.8699
rfemur -32.6531 -0.196872 11.5215
rtibia 70.1239
rfoot 371.719 -12.9771
rtoes 39.2809
lfemur -22.4123 2.20334 -30.3782
ltibia 9.68134
lfoot 5.64391 3.58321
ltoes -5.44739
708
root 9.10566 6.15983 2.06967 95.9392 -5.32545 -80.7869
lowerback 12.0464 -4.07364 1.81138
upperback 4.26597 -5.23904 4.13782
thorax -2.0234 -2.72215 4.00475
lowerneck -3.63623 1.5684 -1.80933
upperneck 4.41603 1.14783 15.9368
head 1.79598 0.77951 5.1371
rclavicle -7.55382e-015 1.90833e-014
rhumerus -32.4514 5.89763 -88.1988
rradius 92.4779
rwrist -3.47876
rhand -11.7231 -7.60905
rfingers 7.12502
rthumb 14.3238 -37.095
lclavicle -7.55382e-015 1.90833e-014
lhumerus 15.1005 -5.92498 106.929
lradius 108.387
lwrist 8.45488
lhand -13.3725 -16.6074
lfingers 7.12502
lthumb 12.7341 12.9843
rfemur -32.6124 -0.169486 11.5226
rtibia 69.9963
rfoot 371.548 -13.0777
rtoes 39.4382
lfemur -22.3929 2.23913 -30.3005
ltibia 9.70924
lfoot 5.6962 3.58995
ltoes -4.45694
709
root 9.11139 6.15645 2.06909 95.8932 -5.25316 -80.8857
lowerback 12.0629 -4.0776 1.89547
upperback 4.27081 -5.23583 4.15857
thorax -2.03268 -2.72129 3.98057
lowerneck -3.70104 1.55372 -1.86593
upperneck 4.54716 1.09748 16.1023
head 1.84862 0.762938 5.19925
rclavicle -4.45278e-014 3.81667e-014
rhumerus -32.6213 5.80496 -88.3414
rradius 92.3184
rwrist -3.41846
rhand -11.5761 -7.79894
rfingers 7.12502
rthumb 14.4655 -37.2747
lclavicle -4.45278e-014 3.81667e-014
lhumerus 15.1132 -5.90214 106.874
lradius 108.372
lwrist 8.83332
lhand -14.0504 -16.5169
lfingers 7.12502
lthumb 12.0805 13.1144
rfemur -32.5547 -0.155896 11.5227
rtibia 69.8601
rfoot 371.443 -13.1627
rtoes 39.5396
lfemur -22.3724 2.30981 -30.2333
ltibia 9.76936
lfoot 5.6818 3.62957
ltoes -3.69035
710
root 9.11836 6.153 2.06777 95.8525 -5.19128 -80.9681
lowerback 12.0868 -4.08657 1.97181
upperback 4.26847 -5.23912 4.17901
thorax -2.05247 -2.72345 3.96229
lowerneck -3.7931 1.54492 -1.93987
upperneck 4.70967 1.0481 16.3043
head 1.91476 0.749652 5.27653
rclavicle 1.15295e-014 -2.54444e-014
rhumerus -32.7695 5.74264 -88.4809
rradius 92.1491
rwrist -3.36901
rhand -11.4493 -7.9859
rfingers 7.12502
rthumb 14.5876 -37.4529
lclavicle 1.15295e-014 -2.54444e-014
lhumerus 15.1269 -5.87172 106.81
lradius 108.356
lwrist 9.28455
lhand -14.8311 -16.4379
lfingers 7.12502
lthumb 11.3277 13.2362
rfemur -32.5072 -0.171374 11.5101
rtibia 69.7202
rfoot 371.384 -13.2442
rtoes 39.6521
lfemur -22.368 2.39398 -30.1846
ltibia 9.84587
lfoot 5.6271 3.672
ltoes -3.31698
711
root 9.12682 6.14967 2.06553 95.8267 -5.14729 -81.0329
lowerback 12.1076 -4.10083 2.02507
upperback 4.26049 -5.25148 4.1996
thorax -2.07404 -2.73005 3.95824
lowerneck -3.88214 1.53494 -2.00523
upperneck 4.86453 0.997324 16.501
head 1.97855 0.735326 5.35072
rclavicle -7.95139e-016 1.43125e-014
rhumerus -32.8821 5.69865 -88.6208
rradius 91.9571
rwrist -3.31766
rhand -11.3286 -8.14938
rfingers 7.12502
rthumb 14.704 -37.6079
lclavicle -7.95139e-016 1.43125e-014
lhumerus 15.1492 -5.83123 106.744
lradius 108.339
lwrist 9.80644
lhand -15.6839 -16.3923
lfingers 7.12502
lthumb 10.5051 13.3252
rfemur -32.4867 -0.212626 11.475
rtibia 69.5872
rfoot 371.371 -13.2734
rtoes 39.5915
lfemur -22.3907 2.48074 -30.16
ltibia 9.9333
lfoot 5.5528 3.68704
ltoes -3.34753
